<?xml version="1.0" standalone="no"?>
<!DOCTYPE svg PUBLIC "-//W3C//DTD SVG 20010904//EN"
 "http://www.w3.org/TR/2001/REC-SVG-20010904/DTD/svg10.dtd">
<svg version="1.0" xmlns="http://www.w3.org/2000/svg"
 width="400.000000pt" height="400.000000pt" viewBox="0 0 400.000000 400.000000"
 preserveAspectRatio="xMidYMid meet">

<g transform="translate(0.000000,400.000000) scale(0.100000,-0.100000)"
fill="#000000" stroke="none">
<path d="M1021 3116 c-322 -100 -587 -188 -589 -194 -2 -6 7 -14 20 -17 13 -3
86 -21 164 -40 l140 -34 125 40 c68 21 129 39 134 39 6 0 19 -35 30 -77 l20
-77 95 -23 c52 -12 100 -22 107 -23 8 0 0 43 -22 127 -19 70 -31 130 -27 134
4 3 67 24 139 46 116 35 133 38 137 24 3 -9 23 -104 46 -210 22 -107 42 -196
43 -198 2 -1 279 -70 617 -153 630 -154 693 -166 769 -139 17 6 31 14 31 17 0
4 -11 81 -25 172 -29 189 -29 190 -14 190 6 0 55 -14 109 -31 l98 -30 7 -98
c4 -54 11 -104 15 -110 5 -9 89 29 275 121 147 73 267 138 267 142 -1 5 -97
36 -214 68 -117 33 -571 161 -1008 285 -445 126 -819 226 -850 229 -49 3 -119
-17 -639 -180z m1040 -117 c54 -17 99 -34 99 -37 0 -4 11 -97 25 -207 14 -110
25 -214 25 -231 l0 -31 -100 22 c-55 12 -102 24 -104 26 -2 2 -13 99 -25 214
-12 116 -24 225 -27 243 -3 17 -2 32 1 32 4 0 51 -14 106 -31z m508 -156 c47
-14 88 -27 89 -29 2 -1 18 -97 36 -213 28 -187 30 -211 16 -211 -20 0 -203 40
-209 45 -4 4 -40 368 -41 413 0 28 4 28 109 -5z"/>
<path d="M480 2844 c0 -3 47 -105 106 -227 85 -179 130 -294 236 -597 72 -206
135 -391 140 -410 14 -50 41 -75 101 -94 46 -14 682 -161 932 -216 50 -11 281
-63 515 -116 347 -78 436 -95 486 -92 56 3 92 19 385 162 178 88 329 163 336
168 19 15 22 63 33 473 5 215 12 477 16 582 l6 193 -309 -151 c-411 -201 -477
-229 -561 -236 -62 -5 -107 4 -567 116 -275 67 -527 128 -560 136 -211 50
-1272 307 -1282 310 -7 2 -13 2 -13 -1z m453 -394 c50 -11 102 -22 113 -25 16
-3 23 -15 28 -44 3 -22 9 -46 12 -54 4 -11 -16 -23 -78 -46 -125 -48 -116 -52
-149 69 -30 111 -32 120 -24 120 3 0 47 -9 98 -20z m696 -362 c13 -68 26 -128
28 -134 2 -6 -10 -17 -27 -24 -44 -18 -148 4 -160 34 -15 36 -52 178 -47 182
4 4 166 62 178 63 3 1 16 -54 28 -121z m491 76 c11 -3 22 -37 38 -116 12 -61
20 -113 19 -115 -2 -1 -25 3 -52 10 l-50 12 -11 65 c-7 35 -15 87 -18 113 l-7
49 33 -7 c18 -4 40 -8 48 -11z m1072 -71 c16 -4 17 -19 11 -186 -3 -100 -10
-185 -15 -188 -7 -4 -76 7 -95 16 -2 1 -12 64 -23 141 -11 76 -22 154 -25 171
-5 29 -3 34 27 47 30 13 72 13 120 -1z m-541 -51 c9 -9 52 -213 46 -218 -2 -2
-36 3 -74 12 l-71 16 -6 66 c-4 37 -9 84 -12 106 l-6 39 58 -8 c33 -3 62 -10
65 -13z m-1506 -3 c10 -15 4 -18 -28 -12 -21 4 -25 8 -15 14 18 12 36 11 43
-2z m-95 -133 c30 -7 72 -17 92 -20 28 -5 39 -13 43 -29 15 -75 26 -139 23
-141 -1 -2 -38 -21 -80 -44 l-78 -41 -10 37 c-62 227 -68 252 -56 252 6 0 36
-6 66 -14z"/>
<path d="M1837 1273 c-9 -9 -9 -65 1 -79 5 -7 31 0 80 21 68 30 72 33 47 39
-15 4 -40 4 -55 1 -20 -4 -29 -2 -33 9 -7 16 -28 21 -40 9z"/>
<path d="M1921 1141 c-21 -16 -21 -19 -6 -24 41 -16 134 10 120 33 -11 17 -88
11 -114 -9z"/>
<path d="M3527 874 c-13 -13 11 -59 34 -65 35 -10 69 -10 69 -1 0 25 -87 81
-103 66z"/>
<path d="M1111 799 c-24 -9 -24 -10 -18 -116 8 -119 3 -133 -48 -133 -34 0
-57 18 -75 60 -10 23 -10 22 -5 -10 7 -46 33 -81 78 -103 30 -15 43 -16 76 -7
58 15 85 56 77 118 -3 26 -9 78 -13 115 -5 42 -14 72 -23 77 -18 11 -18 11
-49 -1z"/>
<path d="M3400 778 c0 -31 48 -83 87 -93 21 -5 93 30 93 46 0 14 -52 29 -70
19 -29 -16 -46 -12 -79 16 -20 17 -31 21 -31 12z"/>
<path d="M2735 268 c6 -53 4 -68 -10 -81 -32 -33 -87 -11 -109 42 -12 29 -15
31 -15 13 -2 -65 60 -132 122 -132 61 0 117 50 117 105 0 25 -10 38 -56 74
l-56 44 7 -65z"/>
</g>
</svg>
